<svg width="616" height="465" viewBox="0 0 616 465" fill="none" xmlns="http://www.w3.org/2000/svg">
<g clip-path="url(#clip0)">
<path opacity="0.24" d="M582.492 337.081C583.368 392.718 539.471 445.624 484.737 454.953C459.121 459.339 432.988 455.112 406.975 453.956C350.389 451.484 293.933 463.644 237.448 464.92C226.013 465.179 214.559 464.92 203.094 464.113C165.401 461.255 128.592 451.257 94.621 434.65C80.1313 427.573 65.99 419.121 55.4412 406.961C32.8111 380.907 30.6317 342.772 35.8663 308.684C41.1008 274.596 52.6149 241.276 53.2021 206.77C53.6201 182.679 48.684 158.847 47.4202 134.786C46.1563 110.726 49.0721 85.2096 63.2135 65.7337C77.3548 46.2578 100.891 35.5829 124.466 30.9382C148.042 26.2935 172.234 26.9015 196.248 25.4064C245.916 22.3564 294.55 10.2263 343.931 4.17625C417.573 -4.864 535.998 -7.7844 544.149 88.748C544.774 96.7321 544.947 104.745 544.666 112.749C543.949 139.411 539.859 166.173 543.243 192.636C549.572 242.363 581.696 286.976 582.492 337.081Z" fill="#0664AD"/>
<path opacity="0.24" d="M582.492 337.081C583.368 392.718 539.471 445.624 484.737 454.953C459.121 459.339 432.988 455.113 406.974 453.956C350.389 451.484 293.933 463.645 237.448 464.92C223.615 451.853 209.812 438.776 196.825 424.922C192.844 420.606 188.644 415.822 187.868 409.971C187.311 405.615 188.714 401.25 190.107 397.093C214.276 326.145 247.959 258.815 290.231 196.952C309.975 168.047 331.531 140.538 353.604 113.417C368.601 95.0174 388.017 59.2152 414.637 57.461C436.332 56.0257 461.49 75.9601 480.318 84.482C501.655 94.1403 523.17 103.42 544.666 112.769C543.949 139.431 539.859 166.193 543.243 192.656C549.572 242.363 581.696 286.976 582.492 337.081Z" fill="#0664AD"/>
<path d="M333.8 67.5378L321.38 63.6306L324.774 34.357H325.769C327.003 33.3602 330.605 29.0444 329.64 25.845C328.774 22.9146 324.117 21.7385 320.345 21.2501C314.991 20.5723 311.488 21.1803 310.204 22.9944C308.483 25.4463 310.752 30.0511 311.777 31.616L312.045 32.0246L310.174 60.3215L296.391 56.5141L297.168 53.7133L307.149 56.5141L308.722 32.5928C307.726 30.9681 304.741 25.1971 307.418 21.3398C309.408 18.5091 313.827 17.5024 320.574 18.3496C331.113 19.6952 333.133 24.0608 332.984 27.4896C332.834 30.9183 329.938 35.1244 327.759 36.6893L324.863 61.6073L334.695 64.6971L333.8 67.5378Z" fill="url(#paint0_linear)"/>
<path d="M435.337 415.453H185.48L169.935 402.635L185.48 65.1058L419.792 52.288L435.337 65.1058V415.453Z" fill="#0664AD"/>
<path d="M435.337 415.453H185.48L169.935 402.635L185.48 65.1058L419.792 52.288L435.337 65.1058V415.453Z" fill="url(#paint1_linear)"/>
<path d="M427.107 409.343L181.519 409.961L169.935 402.635L178.165 63.8898L412.478 51.072L428.022 63.8898L427.107 409.343Z" fill="url(#paint2_linear)"/>
<path d="M419.792 52.288H169.935V402.635H419.792V52.288Z" fill="white"/>
<path d="M248.673 76.6677C248.544 77.5548 248.484 78.6612 249.2 79.1596C249.591 79.3951 250.038 79.5192 250.494 79.5184C273.511 81.5131 296.695 80.2245 319.35 75.691C323.082 74.9434 327.6 73.2291 327.869 69.4316C328.117 66.0626 324.883 61.9462 327.49 59.8331C328.468 59.2464 329.585 58.9332 330.725 58.9261C332.792 58.6239 334.766 57.8664 336.506 56.7083C338.246 55.5501 339.707 54.02 340.786 52.2282L275.453 51.6999C269.104 51.6501 257.54 48.9788 253.002 54.6901C249.489 59.0657 248.673 71.4649 248.673 76.6677Z" fill="url(#paint3_linear)"/>
<path d="M321.072 67.6973H253.43L248.852 25.5858L316.952 25.1273L321.072 67.6973Z" fill="#0664AD"/>
<path d="M316.952 25.1273L342.099 37.6461L338.437 52.288H319.847L316.952 25.1273Z" fill="#0664AD"/>
<path d="M316.952 25.1273L342.099 37.6461L338.437 52.288H319.847L316.952 25.1273Z" fill="url(#paint4_linear)"/>
<path d="M301.815 67.0394L288.798 66.5311L284.3 33.9782L285.236 33.739C286.161 32.2838 288.49 26.5825 286.708 23.413C285.096 20.5225 280.29 20.6321 276.538 21.2401C271.194 22.0973 267.969 23.7917 267.223 26.134C266.228 29.2836 269.621 33.5695 271.015 34.955L271.383 35.3138L277.085 66.3517H262.794V63.1024H273.194L268.377 36.8886C267.024 35.4234 262.556 30.1209 264.138 25.1473C265.292 21.5092 269.293 19.1171 276.08 18.0307C286.589 16.3462 289.694 20.4427 290.47 24.1904C291.246 27.9381 289.555 33.3204 287.873 35.6527L291.694 63.3815L301.994 63.7901L301.815 67.0394Z" fill="url(#paint5_linear)"/>
<path d="M284.509 105.692H207.722V202.743H284.509V105.692Z" fill="#0664AD"/>
<path d="M385.976 119.128H312.234C310.047 119.128 308.274 120.904 308.274 123.095C308.274 125.286 310.047 127.062 312.234 127.062H385.976C388.164 127.062 389.937 125.286 389.937 123.095C389.937 120.904 388.164 119.128 385.976 119.128Z" fill="#0664AD"/>
<path d="M385.976 136.521H312.234C310.047 136.521 308.274 138.297 308.274 140.488C308.274 142.679 310.047 144.455 312.234 144.455H385.976C388.164 144.455 389.937 142.679 389.937 140.488C389.937 138.297 388.164 136.521 385.976 136.521Z" fill="#0664AD"/>
<path d="M385.976 161.847H312.234C310.047 161.847 308.274 163.624 308.274 165.814C308.274 168.005 310.047 169.781 312.234 169.781H385.976C388.164 169.781 389.937 168.005 389.937 165.814C389.937 163.624 388.164 161.847 385.976 161.847Z" fill="#0664AD"/>
<path d="M385.976 179.24H312.234C310.047 179.24 308.274 181.016 308.274 183.207C308.274 185.398 310.047 187.174 312.234 187.174H385.976C388.164 187.174 389.937 185.398 389.937 183.207C389.937 181.016 388.164 179.24 385.976 179.24Z" fill="#0664AD"/>
<path d="M339.353 259.815H265.611C263.423 259.815 261.65 261.591 261.65 263.782C261.65 265.973 263.423 267.749 265.611 267.749H339.353C341.54 267.749 343.314 265.973 343.314 263.782C343.314 261.591 341.54 259.815 339.353 259.815Z" fill="#0664AD"/>
<path d="M339.353 277.208H265.611C263.423 277.208 261.65 278.984 261.65 281.175C261.65 283.366 263.423 285.142 265.611 285.142H339.353C341.54 285.142 343.314 283.366 343.314 281.175C343.314 278.984 341.54 277.208 339.353 277.208Z" fill="#0664AD"/>
<path d="M339.353 318.402H265.611C263.423 318.402 261.65 320.178 261.65 322.369C261.65 324.56 263.423 326.336 265.611 326.336H339.353C341.54 326.336 343.314 324.56 343.314 322.369C343.314 320.178 341.54 318.402 339.353 318.402Z" fill="#0664AD"/>
<path d="M339.353 335.795H265.611C263.423 335.795 261.65 337.571 261.65 339.762C261.65 341.953 263.423 343.729 265.611 343.729H339.353C341.54 343.729 343.314 341.953 343.314 339.762C343.314 337.571 341.54 335.795 339.353 335.795Z" fill="#0664AD"/>
<path d="M385.966 215.87H209.852C207.664 215.87 205.891 217.646 205.891 219.837C205.891 222.028 207.664 223.804 209.852 223.804H385.966C388.154 223.804 389.927 222.028 389.927 219.837C389.927 217.646 388.154 215.87 385.966 215.87Z" fill="#0664AD"/>
<path d="M385.966 233.263H209.852C207.664 233.263 205.891 235.039 205.891 237.229C205.891 239.42 207.664 241.196 209.852 241.196H385.966C388.154 241.196 389.927 239.42 389.927 237.229C389.927 235.039 388.154 233.263 385.966 233.263Z" fill="#0664AD"/>
<path d="M247.031 254.931H215.036V283.308H247.031V254.931Z" fill="#0664AD"/>
<path d="M247.031 317.186H215.036V345.563H247.031V317.186Z" fill="#0664AD"/>
<path d="M223.734 185.629C219.107 189.028 214.957 195.138 215.773 200.839C238.433 199.723 259.938 201.029 279.633 200.739C279.235 195.557 277.155 188.968 273.552 185.231C271.676 183.494 269.514 182.095 267.163 181.094C262.367 178.732 257.5 176.38 252.236 175.283C241.727 173.061 232.004 179.569 223.734 185.629Z" fill="white"/>
<path d="M263.541 150.963C263.628 151.796 263.536 152.638 263.272 153.432C263.008 154.226 262.577 154.954 262.008 155.568C261.743 155.884 261.4 156.125 261.013 156.266C259.023 156.914 258.933 152.887 259.5 151.741C260.177 150.435 263.242 148.372 263.541 150.963Z" fill="url(#paint6_linear)"/>
<path d="M228.183 148.711C228.095 149.543 228.185 150.384 228.448 151.178C228.71 151.972 229.139 152.701 229.705 153.316C229.976 153.625 230.317 153.864 230.7 154.013C232.691 154.661 232.78 150.624 232.203 149.488C231.546 148.212 228.481 146.119 228.183 148.711Z" fill="url(#paint7_linear)"/>
<path d="M253.291 162.226C253.291 162.226 253.41 175.403 256.406 178.174C259.401 180.945 244.404 193.892 238.055 179.44C238.055 179.44 241.747 173.2 240.483 162.685C239.219 152.169 253.291 162.226 253.291 162.226Z" fill="url(#paint8_linear)"/>
<path d="M253.729 165.346V168.236C253.729 168.236 246.115 179.2 243.001 175.522C239.886 171.845 240.801 171.017 240.801 171.017L240.463 162.695L253.729 165.346Z" fill="url(#paint9_linear)"/>
<path d="M260.545 143.388C260.545 143.388 262.735 163.502 251.997 167.489C241.259 171.476 234.86 165.755 231.914 156.047C228.969 146.339 233.477 126.743 244.852 128.647C256.226 130.55 260.545 143.388 260.545 143.388Z" fill="url(#paint10_linear)"/>
<path d="M262.247 150.146C262.737 149.45 263.054 148.647 263.173 147.804C263.871 144.029 263.568 140.136 262.293 136.515C261.018 132.895 258.816 129.673 255.908 127.172C254.727 126.129 253.359 125.321 251.877 124.789C250.4 124.351 248.856 124.183 247.32 124.291C242.472 124.441 237.796 126.127 233.964 129.105C232.073 130.612 230.515 132.496 229.387 134.637C228.26 136.778 227.589 139.13 227.416 141.544C227.283 142.975 227.516 144.415 228.093 145.73C228.385 146.385 228.826 146.962 229.381 147.416C229.935 147.869 230.588 148.186 231.287 148.342C233.765 148.77 234.442 146.478 236.452 144.953C239.438 142.651 240.433 139.232 247.3 139.81C258.465 140.747 259.262 153.824 262.247 150.146Z" fill="#7C3418"/>
<path d="M230.173 150.146C230.042 150.026 229.937 149.88 229.864 149.717C229.818 149.528 229.792 149.334 229.785 149.139C229.758 148.948 229.667 148.772 229.526 148.641C229.451 148.579 229.361 148.538 229.265 148.521C229.169 148.503 229.071 148.51 228.979 148.541C228.901 148.578 228.831 148.631 228.774 148.696C228.718 148.761 228.676 148.837 228.65 148.92C228.607 149.086 228.583 149.257 228.581 149.428C228.513 150.09 228.613 150.758 228.869 151.372C229.113 151.794 229.426 152.171 229.795 152.488C229.858 152.567 229.937 152.632 230.026 152.679C230.114 152.727 230.212 152.757 230.312 152.767C230.441 152.759 230.566 152.714 230.67 152.638C230.719 152.613 230.763 152.579 230.8 152.538C230.809 152.489 230.809 152.438 230.8 152.389C230.885 151.934 230.885 151.468 230.8 151.013C230.683 150.667 230.464 150.365 230.173 150.146Z" fill="url(#paint11_linear)"/>
<path d="M261.252 152.309C261.383 152.189 261.488 152.043 261.56 151.88C261.607 151.694 261.634 151.504 261.64 151.312C261.664 151.118 261.76 150.94 261.909 150.814C261.98 150.748 262.067 150.703 262.162 150.683C262.257 150.664 262.355 150.671 262.446 150.704C262.523 150.742 262.592 150.795 262.648 150.86C262.705 150.925 262.748 151.001 262.775 151.083C262.818 151.252 262.841 151.426 262.844 151.601C262.911 152.263 262.812 152.931 262.556 153.545C262.312 153.963 261.999 154.337 261.63 154.651C261.499 154.808 261.315 154.911 261.113 154.94C260.983 154.928 260.858 154.88 260.754 154.801C260.702 154.782 260.656 154.747 260.625 154.701C260.615 154.652 260.615 154.601 260.625 154.551C260.54 154.1 260.54 153.637 260.625 153.186C260.742 152.838 260.96 152.532 261.252 152.309Z" fill="url(#paint12_linear)"/>
</g>
<defs>
<linearGradient id="paint0_linear" x1="308.778" y1="84.5554" x2="326.748" y2="17.1426" gradientUnits="userSpaceOnUse">
<stop stop-color="#010101" stop-opacity="0"/>
<stop offset="0.95" stop-color="#010101"/>
</linearGradient>
<linearGradient id="paint1_linear" x1="143797" y1="199125" x2="-49741.8" y2="35327.2" gradientUnits="userSpaceOnUse">
<stop stop-color="#010101" stop-opacity="0"/>
<stop offset="0.95" stop-color="#010101"/>
</linearGradient>
<linearGradient id="paint2_linear" x1="120503" y1="78062.8" x2="36636.5" y2="84231.3" gradientUnits="userSpaceOnUse">
<stop stop-color="#010101" stop-opacity="0"/>
<stop offset="0.95" stop-color="#010101"/>
</linearGradient>
<linearGradient id="paint3_linear" x1="24031.6" y1="3368.6" x2="24457.2" y2="-3918.28" gradientUnits="userSpaceOnUse">
<stop stop-color="#010101" stop-opacity="0"/>
<stop offset="0.95" stop-color="#010101"/>
</linearGradient>
<linearGradient id="paint4_linear" x1="7999.39" y1="580.562" x2="7518.86" y2="1410.44" gradientUnits="userSpaceOnUse">
<stop stop-color="#010101" stop-opacity="0"/>
<stop offset="0.95" stop-color="#010101"/>
</linearGradient>
<linearGradient id="paint5_linear" x1="10245" y1="4810.28" x2="10168.4" y2="938.988" gradientUnits="userSpaceOnUse">
<stop stop-color="#010101" stop-opacity="0"/>
<stop offset="0.95" stop-color="#010101"/>
</linearGradient>
<linearGradient id="paint6_linear" x1="263.571" y1="153.026" x2="259.222" y2="153.026" gradientUnits="userSpaceOnUse">
<stop stop-color="#E4C5D5"/>
<stop offset="0.42" stop-color="#E9D3CF"/>
<stop offset="1" stop-color="#EFE8CA"/>
</linearGradient>
<linearGradient id="paint7_linear" x1="-484.926" y1="1175.47" x2="-465.863" y2="1175.47" gradientUnits="userSpaceOnUse">
<stop stop-color="#E4C5D5"/>
<stop offset="0.42" stop-color="#E9D3CF"/>
<stop offset="1" stop-color="#EFE8CA"/>
</linearGradient>
<linearGradient id="paint8_linear" x1="-6673.97" y1="5158.47" x2="-6321.06" y2="5158.47" gradientUnits="userSpaceOnUse">
<stop stop-color="#E4C5D5"/>
<stop offset="0.42" stop-color="#E9D3CF"/>
<stop offset="1" stop-color="#EFE8CA"/>
</linearGradient>
<linearGradient id="paint9_linear" x1="249.27" y1="178.702" x2="240.586" y2="135.878" gradientUnits="userSpaceOnUse">
<stop offset="0.12" stop-color="#010101" stop-opacity="0"/>
<stop offset="0.95" stop-color="#010101"/>
</linearGradient>
<linearGradient id="paint10_linear" x1="-10837.4" y1="6305.11" x2="-9951.66" y2="6305.11" gradientUnits="userSpaceOnUse">
<stop stop-color="#E4C5D5"/>
<stop offset="0.42" stop-color="#E9D3CF"/>
<stop offset="1" stop-color="#EFE8CA"/>
</linearGradient>
<linearGradient id="paint11_linear" x1="-555.037" y1="811.298" x2="-576.013" y2="808.935" gradientUnits="userSpaceOnUse">
<stop offset="0.12" stop-color="#010101" stop-opacity="0"/>
<stop offset="0.95" stop-color="#010101"/>
</linearGradient>
<linearGradient id="paint12_linear" x1="170.555" y1="824.482" x2="149.584" y2="822.139" gradientUnits="userSpaceOnUse">
<stop offset="0.12" stop-color="#010101" stop-opacity="0"/>
<stop offset="0.95" stop-color="#010101"/>
</linearGradient>
<clipPath id="clip0">
<rect width="616" height="465" fill="white"/>
</clipPath>
</defs>
</svg>
