<svg width="70" height="70" viewBox="0 0 70 70" fill="none" xmlns="http://www.w3.org/2000/svg">
<g clip-path="url(#clip0)">
<path d="M46.4021 35.3593L70.0008 50.278V19.8105L46.4021 35.3593Z" fill="black"/>
<path d="M0 19.8105V50.278L23.5988 35.3593L0 19.8105Z" fill="black"/>
<path d="M65.6266 10.9375H4.37656C2.19344 10.9375 0.460938 12.565 0.132812 14.6606L35.0016 37.6338L69.8703 14.6606C69.5422 12.565 67.8097 10.9375 65.6266 10.9375Z" fill="black"/>
<path d="M42.3935 38.0019L36.2029 42.0794C35.8354 42.3201 35.4197 42.4382 34.9997 42.4382C34.5797 42.4382 34.1641 42.3201 33.7966 42.0794L27.606 37.9976L0.13974 55.3707C0.476615 57.4488 2.20036 59.0632 4.37474 59.0632H65.6247C67.7991 59.0632 69.5229 57.4488 69.8597 55.3707L42.3935 38.0019Z" fill="black"/>
</g>
<defs>
<clipPath id="clip0">
<rect width="70" height="70" fill="white"/>
</clipPath>
</defs>
</svg>
