<svg width="70" height="70" viewBox="0 0 70 70" fill="none" xmlns="http://www.w3.org/2000/svg">
<path d="M34.9956 0.728027C15.6713 0.728027 0 16.4605 0 35.868C0 51.3905 10.0275 64.5593 23.94 69.2099C25.69 69.5337 26.3288 68.4487 26.3288 67.5168C26.3288 66.6812 26.2981 64.4718 26.2806 61.5405C16.5462 63.6624 14.49 56.8287 14.49 56.8287C12.9019 52.7687 10.605 51.688 10.605 51.688C7.42438 49.5093 10.8412 49.553 10.8412 49.553C14.3544 49.8024 16.2006 53.1755 16.2006 53.1755C19.3244 58.5437 24.395 56.9949 26.39 56.0937C26.705 53.823 27.6106 52.2743 28.6125 51.3949C20.8425 50.5068 12.67 47.4924 12.67 34.0305C12.67 30.1937 14.035 27.0568 16.275 24.598C15.9119 23.7099 14.7131 20.1355 16.6163 15.3012C16.6163 15.3012 19.5563 14.3562 26.2413 18.9018C29.0325 18.123 32.025 17.7337 35.0044 17.7205C37.975 17.738 40.9719 18.123 43.7675 18.9062C50.4481 14.3605 53.3837 15.3055 53.3837 15.3055C55.2912 20.1443 54.0925 23.7143 53.7337 24.6024C55.9781 27.0612 57.33 30.198 57.33 34.0349C57.33 47.5318 49.1487 50.5024 41.3525 51.373C42.6081 52.458 43.7281 54.6018 43.7281 57.8787C43.7281 62.5774 43.6844 66.3662 43.6844 67.5168C43.6844 68.4574 44.3144 69.5512 46.0906 69.2055C59.9813 64.5505 70 51.3862 70 35.868C70 16.4605 54.3288 0.728027 34.9956 0.728027Z" fill="black"/>
</svg>
