<svg width="70" height="70" viewBox="0 0 70 70" fill="none" xmlns="http://www.w3.org/2000/svg">
<path d="M10.1117 3.55469C5.29961 3.55469 2.15334 6.71457 2.15334 10.8678C2.15334 14.9293 5.20588 18.1793 9.92708 18.1793H10.0184C14.9247 18.1793 17.978 14.9293 17.978 10.8678C17.8863 6.71457 14.9247 3.55469 10.1117 3.55469Z" fill="black"/>
<path d="M2.98391 23.958H17.0518V66.2818H2.98391V23.958Z" fill="black"/>
<path d="M51.5817 22.9653C43.9926 22.9653 38.9037 30.0966 38.9037 30.0966V23.9587H24.8354V66.2825H38.9029V42.6472C38.9029 41.3819 38.9946 40.1186 39.3663 39.2138C40.3833 36.6871 42.6976 34.0696 46.5841 34.0696C51.6746 34.0696 53.7106 37.9509 53.7106 43.6406V66.2825H67.7772V42.0148C67.7772 29.0147 60.8366 22.9653 51.5817 22.9653Z" fill="black"/>
</svg>
