<svg width="164" height="23" viewBox="0 0 164 23" fill="none" xmlns="http://www.w3.org/2000/svg">
<path d="M18.73 0.969999C19.13 0.989999 19.47 1.14 19.75 1.42C20.03 1.68 20.17 2.01 20.17 2.41V20.56C20.17 20.96 20.03 21.3 19.75 21.58C19.49 21.86 19.14 22 18.7 22C18.26 22 17.9 21.87 17.62 21.61C17.34 21.33 17.2 20.98 17.2 20.56V6.67L11.38 15.49C11.24 15.67 11.06 15.82 10.84 15.94C10.64 16.06 10.43 16.11 10.21 16.09C10.01 16.11 9.8 16.06 9.58 15.94C9.38 15.82 9.21 15.67 9.07 15.49L3.22 6.4V20.56C3.22 20.98 3.09 21.33 2.83 21.61C2.59 21.87 2.26 22 1.84 22C1.44 22 1.11 21.87 0.85 21.61C0.61 21.33 0.49 20.98 0.49 20.56V2.41C0.49 2.03 0.63 1.7 0.91 1.42C1.19 1.12 1.54 0.969999 1.96 0.969999C2.2 0.969999 2.43 1.03 2.65 1.15C2.89 1.27 3.08 1.43 3.22 1.63L10.33 12.4L17.53 1.63C17.85 1.19 18.25 0.969999 18.73 0.969999ZM40.278 0.999999C40.718 0.999999 41.078 1.14 41.358 1.42C41.638 1.68 41.778 2.02 41.778 2.44V20.53C41.758 20.95 41.608 21.3 41.328 21.58C41.048 21.86 40.688 22 40.248 22C39.848 22 39.498 21.86 39.198 21.58C38.918 21.3 38.778 20.95 38.778 20.53V12.76H28.128V20.53C28.128 20.95 27.978 21.3 27.678 21.58C27.378 21.86 27.028 22 26.628 22C26.188 22 25.828 21.86 25.548 21.58C25.288 21.3 25.158 20.95 25.158 20.53V2.44C25.158 2.04 25.298 1.7 25.578 1.42C25.858 1.14 26.218 0.999999 26.658 0.999999C27.058 0.999999 27.398 1.14 27.678 1.42C27.978 1.7 28.128 2.04 28.128 2.44V10H38.778V2.44C38.778 2.04 38.928 1.7 39.228 1.42C39.528 1.14 39.878 0.999999 40.278 0.999999ZM64.9605 0.969999C65.3605 0.989999 65.7005 1.14 65.9805 1.42C66.2605 1.68 66.4005 2.01 66.4005 2.41V20.56C66.4005 20.96 66.2605 21.3 65.9805 21.58C65.7205 21.86 65.3705 22 64.9305 22C64.4905 22 64.1305 21.87 63.8505 21.61C63.5705 21.33 63.4305 20.98 63.4305 20.56V6.67L57.6105 15.49C57.4705 15.67 57.2905 15.82 57.0705 15.94C56.8705 16.06 56.6605 16.11 56.4405 16.09C56.2405 16.11 56.0305 16.06 55.8105 15.94C55.6105 15.82 55.4405 15.67 55.3005 15.49L49.4505 6.4V20.56C49.4505 20.98 49.3205 21.33 49.0605 21.61C48.8205 21.87 48.4905 22 48.0705 22C47.6705 22 47.3405 21.87 47.0805 21.61C46.8405 21.33 46.7205 20.98 46.7205 20.56V2.41C46.7205 2.03 46.8605 1.7 47.1405 1.42C47.4205 1.12 47.7705 0.969999 48.1905 0.969999C48.4305 0.969999 48.6605 1.03 48.8805 1.15C49.1205 1.27 49.3105 1.43 49.4505 1.63L56.5605 12.4L63.7605 1.63C64.0805 1.19 64.4805 0.969999 64.9605 0.969999ZM85.0084 0.999999C85.4284 0.999999 85.7684 1.13 86.0284 1.39C86.3084 1.63 86.4484 1.96 86.4484 2.38C86.4484 2.8 86.3084 3.13 86.0284 3.37C85.7684 3.61 85.4284 3.73 85.0084 3.73H79.6684V20.56C79.6684 20.96 79.5184 21.3 79.2184 21.58C78.9384 21.86 78.5784 22 78.1384 22C77.6984 22 77.3284 21.86 77.0284 21.58C76.7484 21.3 76.6084 20.96 76.6084 20.56V3.73H71.2984C70.8784 3.73 70.5284 3.61 70.2484 3.37C69.9884 3.11 69.8584 2.77 69.8584 2.35C69.8584 1.95 69.9884 1.63 70.2484 1.39C70.5284 1.13 70.8784 0.999999 71.2984 0.999999H85.0084ZM113.914 0.999999C114.294 0.999999 114.604 1.13 114.844 1.39C115.084 1.63 115.204 1.94 115.204 2.32V20.53C115.204 20.95 115.064 21.3 114.784 21.58C114.524 21.86 114.184 22 113.764 22C113.544 22 113.324 21.97 113.104 21.91C112.904 21.83 112.744 21.72 112.624 21.58L100.834 6.22V20.68C100.834 21.06 100.704 21.38 100.444 21.64C100.204 21.88 99.8944 22 99.5144 22C99.1344 22 98.8244 21.88 98.5844 21.64C98.3444 21.38 98.2244 21.06 98.2244 20.68V2.44C98.2244 2.02 98.3544 1.68 98.6144 1.42C98.8944 1.14 99.2344 0.999999 99.6344 0.999999C99.8744 0.999999 100.104 1.05 100.324 1.15C100.544 1.23 100.714 1.35 100.834 1.51L112.594 16.9V2.32C112.594 1.94 112.714 1.63 112.954 1.39C113.214 1.13 113.534 0.999999 113.914 0.999999ZM136.337 20.14C136.397 20.32 136.427 20.51 136.427 20.71C136.427 21.11 136.287 21.44 136.007 21.7C135.747 21.96 135.437 22.09 135.077 22.09C134.797 22.09 134.537 22.01 134.297 21.85C134.077 21.67 133.897 21.43 133.757 21.13L131.897 16.72H122.627L120.797 21.16C120.697 21.46 120.527 21.69 120.287 21.85C120.067 22.01 119.817 22.09 119.537 22.09C119.117 22.09 118.797 21.98 118.577 21.76C118.357 21.54 118.247 21.24 118.247 20.86C118.247 20.78 118.267 20.62 118.307 20.38L125.957 1.84C126.097 1.52 126.287 1.28 126.527 1.12C126.787 0.939999 127.077 0.869999 127.397 0.91C127.697 0.91 127.967 0.989999 128.207 1.15C128.447 1.31 128.617 1.54 128.717 1.84L136.337 20.14ZM130.757 13.99L127.247 5.59L123.767 13.99H130.757ZM148.265 0.999999C150.145 0.999999 151.755 1.47 153.095 2.41C154.435 3.35 155.445 4.62 156.125 6.22C156.805 7.8 157.145 9.56 157.145 11.5C157.145 13.46 156.805 15.24 156.125 16.84C155.445 18.42 154.435 19.68 153.095 20.62C151.755 21.54 150.145 22 148.265 22H140.885C140.485 22 140.145 21.86 139.865 21.58C139.585 21.3 139.445 20.96 139.445 20.56V2.44C139.445 2.04 139.585 1.7 139.865 1.42C140.145 1.14 140.485 0.999999 140.885 0.999999H148.265ZM147.965 19.24C150.005 19.24 151.535 18.52 152.555 17.08C153.575 15.62 154.085 13.76 154.085 11.5C154.085 9.26 153.565 7.41 152.525 5.95C151.505 4.49 149.985 3.76 147.965 3.76H142.415V19.24H147.965ZM163.919 20.53C163.919 20.95 163.769 21.3 163.469 21.58C163.169 21.86 162.819 22 162.419 22C161.979 22 161.619 21.86 161.339 21.58C161.079 21.3 160.949 20.95 160.949 20.53V2.44C160.949 2.04 161.089 1.7 161.369 1.42C161.649 1.14 162.009 0.999999 162.449 0.999999C162.849 0.999999 163.189 1.14 163.469 1.42C163.769 1.7 163.919 2.04 163.919 2.44V20.53Z" fill="white"/>
</svg>
